PathFileType	4	(X/Y/Z)	58_2_21_p1_0-409_filt_butterworth.trc
DataRate	CameraRate	NumFrames	NumMarkers	Units	OrigDataRate	OrigDataStartFrame	OrigNumFrames
34.0	34.0	5	27	m	34.0	255	409
Frame#	Time	RHip			RKnee			RAnkle			RBigToe			RSmallToe			RHeel			LHip			LKnee			LAnkle			LBigToe			LSmallToe			LHeel			Neck			Head			Nose			RShoulder			RElbow			RWrist			RThumb			RIndex			RPinky			LShoulder			LElbow			LWrist			LThumb			LIndex			LPinky			
		X1	Y1	Z1	X2	Y2	Z2	X3	Y3	Z3	X4	Y4	Z4	X5	Y5	Z5	X6	Y6	Z6	X7	Y7	Z7	X8	Y8	Z8	X9	Y9	Z9	X10	Y10	Z10	X11	Y11	Z11	X12	Y12	Z12	X13	Y13	Z13	X14	Y14	Z14	X15	Y15	Z15	X16	Y16	Z16	X17	Y17	Z17	X18	Y18	Z18	X19	Y19	Z19	X20	Y20	Z20	X21	Y21	Z21	X22	Y22	Z22	X23	Y23	Z23	X24	Y24	Z24	X25	Y25	Z25	X26	Y26	Z26	X27	Y27	Z27	
255	7.5	0.33913273744791383	0.8460152766446449	0.7262771952722662	0.33012990598693426	0.36621435207434755	0.7175737478838512	0.3128158230245529	-0.10888628501549341	0.7849655141217521	0.28550404947201646	-0.09766533281185918	0.526870723299688	0.34979104363107194	-0.09919404078793931	0.5658122049681092	0.2943071389369852	-0.16886095346579785	0.8329269088118966	0.1454347353491771	0.8320091157314585	0.7471200666433103	0.14174410625547829	0.35474123862242835	0.7348774014008601	0.13043389686132614	-0.06546931252815924	0.7405618307211824	0.12422448546745238	-0.09449662409488349	0.5359453419775869	0.07007540331521585	-0.11295650124096755	0.5910657999105182	0.14173114137674406	-0.13847659581410204	0.8074370227007881	0.24150234954597669	1.3778090580190154	0.6733414510119555	0.2271549568273885	1.6495131164090175	0.5196448608730241	0.22298232484641572	1.461710148495033	0.5281625180061625	0.3791721570095281	1.3362366306791347	0.6619024357303713	0.4315408660534521	1.0692710489793422	0.7033684283294427	0.32456719267147993	0.9934019649603716	0.4370625021425123	0.24966227032958138	0.9473281115013709	0.3115547975682904	0.2691031574924184	0.9354080415070612	0.29403638072881527	0.2983279000442143	0.8844544848350026	0.37938761337460253	0.08682535532749572	1.3262890409755195	0.7376029171557772	0.06097842877144932	1.0864198788859751	0.7495870423725665	0.10892965122652781	0.9854277910436618	0.5145988550822812	0.17479668366492795	0.9507088271627906	0.39617449537630123	0.15139463605493253	0.9411344195376946	0.3479298069024388	0.1296628727887304	0.8866922158045397	0.4464338132861528	
256	7.529411764705882	0.33871567093670685	0.8451176507917948	0.7259358886374881	0.32917491038314767	0.36639227187441425	0.7171499358754223	0.31209919377778433	-0.10933311726151196	0.7858954325726791	0.28561478417785313	-0.09801664578726357	0.5264372474711623	0.34989157713741736	-0.09943022129482344	0.5661277952771059	0.29353535020771554	-0.16700401628187794	0.8314474782022637	0.1446127661397875	0.8300129648981003	0.747993234985704	0.14209444286230374	0.3545762925776723	0.7335946509255549	0.1307135791032852	-0.06584551688935457	0.7414243990812845	0.12426690631522348	-0.09457614801198744	0.5360447840961066	0.07012410788890418	-0.11301056597479764	0.5911146413487081	0.14180191609916168	-0.1388620176279548	0.8079430223956471	0.24154011499423594	1.37729960200254	0.673297116679991	0.22661370056332938	1.6493874921279952	0.5215932082320621	0.222923860761431	1.4619679700217727	0.5299443271355176	0.3792095721940178	1.336400797162454	0.6611117900208184	0.43165726250224085	1.0678408686072831	0.7108086698631054	0.3275094534838399	0.991958533630327	0.441708853185502	0.24770739987397788	0.9478985633782455	0.312630521207526	0.264908076424205	0.9386412532803097	0.2953647617596027	0.2921908177800388	0.8874564262929944	0.38960628099703004	0.08684036138686019	1.3259317128111976	0.7374020233506113	0.0622884432074371	1.0844231033425484	0.7268897462664627	0.11402994301850015	0.9831829755541441	0.5012632633585838	0.18227688125880243	0.9448647647709248	0.3805895418697771	0.16195802903522483	0.9380828848923776	0.33312055479936764	0.13855248017655283	0.8844453770533397	0.4313854122785719	
257	7.558823529411764	0.33860439799175956	0.844017352014182	0.7241919144727998	0.3282662409064349	0.3664039671172095	0.716919618444461	0.3115022784746095	-0.10962120521300427	0.7868285206378304	0.2858430076827486	-0.09902570339969484	0.5258508394151884	0.35014668978610364	-0.09913414845049809	0.5658420828748485	0.29283963456002804	-0.1651980927661747	0.8300630398797808	0.1439183310806998	0.828348256131535	0.7479308273946053	0.1424376521381697	0.354589568958806	0.7322918347081656	0.13098572490688531	-0.06635378620002706	0.7424811667177903	0.12410741537572421	-0.09409154757222143	0.535349251843324	0.07006417036324133	-0.11276482411497725	0.5907302063612225	0.14192418066938403	-0.1392567380088856	0.8085626629863053	0.24158399719521728	1.3769648898332387	0.6732519486150241	0.22618901350168397	1.6489940172880606	0.5229015994488109	0.2231342700527712	1.4620910860079332	0.531336383535014	0.3790603832467423	1.336534604151779	0.6603561573381634	0.430970424492788	1.0667341425034336	0.7159171848889819	0.32810760330941025	0.9912735492015446	0.44367054795733785	0.2425121717087187	0.9474045590010013	0.31651715180836704	0.25805374647746426	0.9406997835024726	0.2981948691434435	0.28521676785308614	0.8874891599968904	0.4014397625917576	0.08682501481857346	1.3259513039424602	0.7373686478297738	0.06363801837513283	1.0825758274001485	0.7081045137029692	0.11914443316901842	0.9805592073960866	0.4903839352399541	0.1858649116790225	0.9396829261528985	0.3699051677360795	0.17036578517284878	0.9343629004569864	0.3271792255062797	0.1471453675442323	0.8833886073047441	0.4240778166125574	
258	7.588235294117647	0.3387585914592095	0.8428267418070929	0.7217533166178394	0.3274104243638806	0.36632040223388895	0.7169800285452375	0.3109514962331633	-0.10980856791492735	0.7879963270663948	0.2862095915992736	-0.10004459005397852	0.5258434376639315	0.3502980785116112	-0.09908719118020295	0.5659307994311839	0.2922660285527589	-0.16359995489518528	0.8288600975167584	0.14332244086965842	0.8269171911749826	0.7472615958735742	0.14275162332136324	0.35464848724631803	0.7310732360793394	0.13123620778517314	-0.06696034891667249	0.7436606188590712	0.12388708818292891	-0.09345793105770334	0.5344255820297606	0.0699154002986932	-0.11230680052398796	0.5900337585950295	0.14208100379840782	-0.13964540667194578	0.8092885614941301	0.2415556502652459	1.3772160280103396	0.6733476660003181	0.2259420686219042	1.648370940375162	0.5232311403990095	0.2231427950298959	1.4622258489527182	0.5315599854189347	0.3790550947552839	1.3364567648359487	0.6606205043135007	0.4298692790972563	1.0660548140657975	0.7185105717838671	0.3266996144073203	0.9913810062555468	0.4428328336005528	0.2353513433297664	0.9445796958754099	0.32303504391432897	0.25045585244812035	0.9404064736896063	0.3034557479822974	0.27990834626114247	0.8853325476405425	0.41420731996126	0.08678462424825731	1.3261852165496217	0.7374199288657737	0.06484004229038401	1.0807698799320944	0.6954315975488259	0.12457247313261263	0.9794466680575193	0.4796245011770087	0.18797861066816607	0.9373657574197969	0.3609147097396247	0.17696737495626752	0.932063253889448	0.326580102514251	0.1545641787035023	0.8836098624875123	0.4249996289525402	
259	7.617647058823529	0.3389298587525487	0.8413207068589829	0.7196696678900614	0.32656706969444044	0.3661225187941809	0.7173888046748276	0.31048846878445685	-0.10996461142158481	0.7895328623820994	0.2863644787291284	-0.10057351465428188	0.5261800414459535	0.3503982481703881	-0.09944392624370993	0.5665428337344791	0.29180000081045254	-0.1621543341084724	0.8279006487382741	0.1428242504664395	0.825590671758247	0.7460173375286696	0.14302803393996374	0.35472264932524933	0.7299444075691754	0.13147434224913038	-0.06759648659932689	0.7449362381185538	0.12405853178525092	-0.09399636968687872	0.5351090815037203	0.06992151025864442	-0.11239915662720873	0.5901060526311429	0.14226876291673976	-0.14003227035549537	0.8101223984957917	0.2414676597254673	1.3783870956401527	0.6735262490216463	0.22605718709625366	1.6476804423918228	0.5229554057448655	0.22283752860921788	1.4623831829191145	0.5310361144931308	0.3794575260412201	1.336205267974805	0.6618884465881265	0.42900263870387156	1.0656206461878839	0.7196309184220239	0.3248958810993837	0.9926519243351241	0.43952707071553054	0.2293992010010567	0.9420611930997066	0.3275325342109856	0.2441804495967137	0.9400510447824654	0.3078580543121914	0.2771838561012966	0.8851787971143417	0.42228878904969347	0.08674918410693805	1.3262222056709023	0.7374087585248925	0.06592615958791355	1.079253957999778	0.6895197328384949	0.12975419403000352	0.9813394451006269	0.46972443239389794	0.19064712904923398	0.9392344634507733	0.35465133791706915	0.18254249626207142	0.9315848203510552	0.3295374960432249	0.16094441403037335	0.8849016163323277	0.4305248192243713	
